<?xml version="1.0" standalone="no"?><!DOCTYPE svg PUBLIC "-//W3C//DTD SVG 1.1//EN" "http://www.w3.org/Graphics/SVG/1.1/DTD/svg11.dtd"><svg t="1548492341620" class="icon" style="" viewBox="0 0 1024 1024" version="1.1" xmlns="http://www.w3.org/2000/svg" p-id="5485" xmlns:xlink="http://www.w3.org/1999/xlink" width="200" height="200"><defs><style type="text/css"></style></defs><path d="M986.832 320.4l-97.952-97.92c-24.032-24.016-63.328-63.328-87.376-87.376l-97.952-97.92c-24.032-24.032-66.816-28.256-95.088-9.424L340.736 206.288c-28.288 18.848-38.976 59.12-23.792 89.488l68.304 136.56c2.08 4.176 4.496 8.624 7.168 13.232L47.008 791.008 16 1008l186 0 0-62 124 0 0-124 124 0 0-124.016 124 0 0-68.976c6.208 3.696 12.16 7.008 17.632 9.728l136.56 68.304c30.384 15.2 70.64 4.496 89.488-23.776l178.544-267.824C1015.072 387.216 1010.816 344.432 986.832 320.4zM161.92 843.92l-43.84-43.84 301.84-301.856 43.84 43.84L161.92 843.92zM904.384 426.528l-43.84 43.84c-12.064 12.048-31.776 12.048-43.84 0L553.632 207.312c-12.048-12.048-12.048-31.776 0-43.84l43.84-43.84c12.064-12.048 31.792-12.048 43.84 0l263.072 263.024C916.432 394.704 916.432 414.464 904.384 426.528z" p-id="5486" fill="#758DFF"></path></svg>