<?xml version="1.0" standalone="no"?><!DOCTYPE svg PUBLIC "-//W3C//DTD SVG 1.1//EN" "http://www.w3.org/Graphics/SVG/1.1/DTD/svg11.dtd"><svg t="1548261007703" class="icon" style="" viewBox="0 0 1024 1024" version="1.1" xmlns="http://www.w3.org/2000/svg" p-id="19887" xmlns:xlink="http://www.w3.org/1999/xlink" width="200" height="200"><defs><style type="text/css"></style></defs><path d="M996.352 550.4l-80.512 51.2a45.696 45.696 0 0 1-20.608 6.784 44.032 44.032 0 0 1-35.328-2.304l-102.4 124.672c7.424 28.288 2.048 57.472-19.712 73.728-25.6 20.864-70.4 19.2-88.832-1.664A71.936 71.936 0 0 1 614.4 844.8a67.328 67.328 0 0 1-68.096-5.248 65.408 65.408 0 0 1-32.896 34.176c-33.664 15.872-70.656 4.224-84.864-16.128l-30.976-42.112A44.928 44.928 0 0 1 384 832.768c-19.456 13.568-61.568 20.608-82.432-6.912l-21.504-29.568a31.872 31.872 0 0 1-2.944-5.12 16.512 16.512 0 0 1-4.608-4.352L155.648 614.4a43.52 43.52 0 0 1-47.232 2.048l-7.68-4.48a70.144 70.144 0 0 1-8.064-3.84L12.8 556.8a13.952 13.952 0 0 1-3.2-21.76l227.072-402.56a9.728 9.728 0 0 1 12.8-3.584 17.664 17.664 0 0 1 3.456 1.024L358.4 192c21.12 12.8 20.608 37.376 8.448 58.88l-4.096 7.04 117.248 24.704c25.6-13.824 103.808-25.6 103.808-25.6 43.392-10.624 58.24-28.16 56.192-33.024a40.832 40.832 0 0 1 18.688-47.616l78.976-51.2C748.8 115.2 769.408 105.344 780.8 128l228.992 396.032A20.352 20.352 0 0 1 996.352 550.4zM339.2 211.2l-87.552-48L40.448 537.6h0.768l67.84 41.216c18.56 11.008 30.72 15.104 41.344-3.968L332.8 248.32c10.624-19.2 19.2-30.72 6.4-37.12z m102.4 140.8c-21.376 21.76-25.6 51.2-10.88 67.84A46.72 46.72 0 0 0 486.4 422.4l54.144-37.12 3.712-2.816a14.464 14.464 0 0 1 20.864 0 15.36 15.36 0 0 1 0 21.376l-38.4 29.312-21.888 16.896a14.848 14.848 0 0 1-5.76 3.712A82.432 82.432 0 0 1 403.2 435.2c-25.6-32-12.8-76.8 19.2-108.8l19.2-19.2-93.056-20.992h-1.536L175.36 588.8 320 800a34.688 34.688 0 0 0 45.056 7.424c12.8-9.216 9.088-32.64 0-45.824l-43.776-61.696a16.128 16.128 0 0 1 5.632-18.432 15.488 15.488 0 0 1 17.28-0.64L448 832a40.32 40.32 0 0 0 54.016 11.776c12.8-9.088 21.632-28.416 12.8-41.472L436.352 691.2l-11.008-14.848a12.032 12.032 0 0 1-1.792-3.328s-1.152-13.824 5.632-17.408a16.896 16.896 0 0 1 21.888 3.712l8.704 11.648 1.152-1.28 37.248 53.248 49.28 66.304c9.344 11.264 27.264 42.496 56.192 23.424 20.224-7.552 19.968-38.4 10.752-51.2l-91.52-125.44c-4.48-8.96-4.48-15.36 8.32-21.76a17.92 17.92 0 0 1 22.144 6.528l96.512 135.424a12.8 12.8 0 0 1 2.048 4.096l0.896 1.152c10.624 15.104 32 38.4 60.032 21.376l6.016-3.2c15.232-10.624 12.8-38.4 2.048-52.992l-70.528-101.12a15.616 15.616 0 0 1-5.888-4.992l-78.08-107.648a17.536 17.536 0 0 1 2.816-23.168 14.72 14.72 0 0 1 21.632 3.072l39.424 54.4a45.312 45.312 0 0 1 7.296 7.936L742.4 697.344l95.616-115.968-184.576-324.352A202.88 202.88 0 0 1 601.6 281.6c-18.816 5.888-67.456 9.6-102.4 25.6a167.552 167.552 0 0 0-57.6 44.8z m317.312-201.856l-75.008 48.256c1.536-0.896-18.304 6.4-5.12 32.64l184.448 331.008c11.264 19.84 23.936 15.616 43.264 4.224L972.8 524.8l1.152-0.768z" fill="#12bfed" p-id="19888"></path></svg>