<?xml version="1.0" standalone="no"?><!DOCTYPE svg PUBLIC "-//W3C//DTD SVG 1.1//EN" "http://www.w3.org/Graphics/SVG/1.1/DTD/svg11.dtd"><svg t="1548317281864" class="icon" style="" viewBox="0 0 1024 1024" version="1.1" xmlns="http://www.w3.org/2000/svg" p-id="2824" xmlns:xlink="http://www.w3.org/1999/xlink" width="200" height="200"><defs><style type="text/css"></style></defs><path d="M532.494777 876.135324c-8.096399 0-31.766494-1.277086-52.066843-15.007808-14.19428-9.599635-30.746258-20.259416-38.33919-25.113981h-39.081087c-9.490142 0-12.768815-7.430226-12.768815-16.920368s3.278673-17.440208 12.768815-17.440208h44.095287c3.257184 0 6.449899 0.927115 9.20157 2.668783 0.236384 0.151449 23.921829 15.181771 43.375903 28.340465 14.298658 9.67229 33.717939 9.112542 33.91646 9.092076 0.206708-0.007163 0.50142-0.014326 0.708128-0.014327h234.637972c61.397349 0 83.882456-89.081874 84.103489-89.98136 0.295735-1.284249 35.127032-153.787572 46.907333-241.309928 9.15859-68.028373-79.098499-85.08791-90.840938-87.045495h-134.370336c-9.493212 0-17.181311-7.693216-17.181312-17.181311 0-50.230008 15.45704-70.995961 43.52019-108.711958l0.251733-0.333598c24.198122-32.519648 25.53456-79.404468 3.318582-116.669186-10.038634-16.835434-24.680099-21.303188-34.756595-18.264992-10.212596 3.088338-15.656585 13.116739-14.930037 27.50954 2.758834 55.19202-11.839653 96.236831-96.719832 154.999167-73.67293 51.002604-124.453477 152.267962-124.954897 153.285129a17.176195 17.176195 0 0 1-15.389502 9.544377H369.796254c-9.490142 0-17.179264-7.689123-17.179264-17.181312 0-9.490142 7.689123-17.179264 17.179264-17.179264h37.721113c15.182794-27.972075 63.421448-109.815081 131.176598-156.722414 72.948429-50.504254 84.241636-79.388095 81.956594-125.033691-1.50119-30.060643 13.926174-54.43989 39.302121-62.116733 27.493168-8.315386 57.301054 5.174859 74.223469 33.559327 29.244045 49.051159 27.122731 111.24771-5.267981 154.778132l-0.246617 0.333598c-22.37152 30.060643-33.023114 44.378743-35.901674 71.018473h117.717052c0.825808 0 1.648546 0.053212 2.465144 0.176009 46.821375 6.786567 132.389216 41.812291 121.076566 125.811404-11.988032 89.092108-46.080501 238.334153-47.524386 244.641813-1.212618 4.985548-29.469172 116.426663-117.53388 116.426662H534.649859c-0.506537 0.026606-1.226944 0.042979-2.155082 0.042979z" p-id="2825" fill="#12bfed"></path><path d="M374.241496 860.972996H194.281845c-26.527167 0-48.105624-21.579481-48.105624-48.103577V498.485195c0-26.527167 21.578458-48.105624 48.105624-48.105624h145.599076c25.068955 0 45.261856 19.497053 48.01455 46.352701l34.349319 314.269613c0.069585 0.6191 0.101307 1.240247 0.101307 1.86651 0.001023 26.526143-21.578458 48.104601-48.104601 48.104601zM194.281845 484.741169c-7.579629 0-13.745049 6.164397-13.745049 13.744026v314.384224c0 7.579629 6.163373 13.745049 13.745049 13.745048h179.959651c7.327896 0 13.334703-5.762237 13.722536-12.991895l-34.239825-313.269843c-0.800225-7.827269-5.384637-15.609513-13.843286-15.609513H194.281845v-0.002047z" p-id="2826" fill="#12bfed"></path></svg>