<?xml version="1.0" standalone="no"?><!DOCTYPE svg PUBLIC "-//W3C//DTD SVG 1.1//EN" "http://www.w3.org/Graphics/SVG/1.1/DTD/svg11.dtd"><svg t="1547816481595" class="icon" style="" viewBox="0 0 1024 1024" version="1.1" xmlns="http://www.w3.org/2000/svg" p-id="5302" xmlns:xlink="http://www.w3.org/1999/xlink" width="200" height="200"><defs><style type="text/css"></style></defs><path d="M793.6 460.8h-51.2V307.2a230.4 230.4 0 1 0-460.8 0v153.6h-51.2V307.2a281.6 281.6 0 0 1 563.2 0v153.6z" fill="#758DFF" p-id="5303"></path><path d="M179.2 486.4a25.6 25.6 0 0 0-25.6 25.6v409.6a25.6 25.6 0 0 0 25.6 25.6h665.6a25.6 25.6 0 0 0 25.6-25.6v-409.6a25.6 25.6 0 0 0-25.6-25.6h-665.6z m0-51.2h665.6A76.8 76.8 0 0 1 921.6 512v409.6a76.8 76.8 0 0 1-76.8 76.8h-665.6A76.8 76.8 0 0 1 102.4 921.6v-409.6a76.8 76.8 0 0 1 76.8-76.8z" fill="#758DFF" p-id="5304"></path><path d="M486.4 614.4l51.2 0 0 204.8-51.2 0 0-204.8Z" fill="#758DFF" p-id="5305"></path></svg>